<svg width="111" height="110" viewBox="0 0 111 110" fill="none" xmlns="http://www.w3.org/2000/svg">
<g clip-path="url(#clip0)">
<path d="M89.1468 40.5035H82.2215L84.3081 16.5464C84.312 16.503 84.3126 16.4603 84.3128 16.4175C84.3128 16.4139 84.3133 16.4104 84.3133 16.4068C84.3133 16.4061 84.3133 16.4057 84.3133 16.4051C84.3133 15.753 83.9199 15.1783 83.3417 14.9284C83.3368 14.9263 83.3321 14.9237 83.3271 14.9216C83.2912 14.9065 83.2541 14.8936 83.2167 14.8812C83.2027 14.8767 83.1894 14.8711 83.1754 14.8668C83.1449 14.8575 83.1136 14.8502 83.0824 14.8427C83.0605 14.8375 83.0394 14.8313 83.0173 14.827C82.99 14.8217 82.9617 14.8182 82.9337 14.8141C82.9075 14.8103 82.8817 14.8058 82.8553 14.8034C82.8508 14.803 82.8467 14.8021 82.8422 14.8017C82.8139 14.7991 82.7859 14.7995 82.7578 14.7984C82.7389 14.7978 82.7204 14.7957 82.7015 14.7957H82.6813C82.6796 14.7957 82.6779 14.7957 82.6764 14.7957H49.7254C48.836 14.7957 48.1141 15.5175 48.1141 16.407C48.1141 17.2943 48.836 18.0183 49.7254 18.0183H80.9451L77.7384 54.8373C77.7379 54.8401 77.7379 54.8429 77.7375 54.8457L76.9284 64.1358H20.938L21.8745 54.4682H32.5353C33.4254 54.4682 34.1466 53.7468 34.1466 52.8569C34.1466 51.967 33.4254 51.2455 32.5353 51.2455H22.1869L24.1643 30.8364H41.1316C42.0217 30.8364 42.743 30.1149 42.743 29.225C42.743 28.3352 42.0217 27.6137 41.1316 27.6137H24.4767L25.4065 18.0183H43.2801C44.1674 18.0183 44.8914 17.2943 44.8914 16.407C44.8914 15.5175 44.1674 14.7957 43.2801 14.7957H23.9441C23.9432 14.7957 23.9426 14.7959 23.9417 14.7959C23.1848 14.7957 22.5283 15.3285 22.3695 16.0671C22.3684 16.0725 22.3665 16.0776 22.3654 16.083C22.3572 16.1232 22.3519 16.1642 22.3465 16.2055C22.345 16.2186 22.3422 16.231 22.3409 16.2441C22.3407 16.2467 22.34 16.2491 22.3398 16.2517L21.239 27.6137H1.70551C0.815411 27.6137 0.0941772 28.3352 0.0941772 29.225C0.0941772 30.1149 0.815411 30.8364 1.70551 30.8364H20.9266L18.9492 51.2455H13.2001C12.31 51.2455 11.5888 51.967 11.5888 52.8569C11.5888 53.7468 12.31 54.4682 13.2001 54.4682H18.637L17.5602 65.5802C17.56 65.5819 17.56 65.5836 17.5598 65.5851L15.8949 82.7682C15.8947 82.7701 15.8945 82.7723 15.8943 82.774L15.8936 82.7802C15.8915 82.8026 15.8917 82.8245 15.8904 82.8468C15.8889 82.8765 15.8859 82.9055 15.8859 82.9355C15.8859 82.9368 15.8861 82.9381 15.8861 82.9396C15.8861 82.9811 15.8891 83.0219 15.8921 83.0627C15.8934 83.0758 15.893 83.0892 15.8945 83.1021C15.8988 83.1437 15.9059 83.1848 15.9134 83.2256C15.9155 83.2376 15.9166 83.2499 15.919 83.2617C15.9252 83.2926 15.934 83.3225 15.9422 83.3528C15.9478 83.374 15.9523 83.3957 15.9587 83.4166C15.9607 83.4224 15.9632 83.428 15.965 83.434C16.043 83.6738 16.1753 83.889 16.348 84.0648C16.3513 84.068 16.3538 84.0716 16.3571 84.0747C16.3742 84.0918 16.3929 84.1073 16.411 84.1236C16.5221 84.2255 16.6475 84.3118 16.7848 84.3795C16.8134 84.3937 16.8415 84.4085 16.8707 84.4208C16.8796 84.4246 16.889 84.4272 16.898 84.4306C16.9384 84.4468 16.979 84.4622 17.0209 84.4753C17.0248 84.4764 17.0284 84.4771 17.0323 84.4783C17.08 84.4925 17.1281 84.505 17.1773 84.5151C17.1838 84.5164 17.1904 84.5168 17.1967 84.5181C17.2435 84.5269 17.2906 84.5344 17.3385 84.5391C17.3395 84.5391 17.3404 84.5394 17.3415 84.5396C17.3943 84.5447 17.4467 84.5473 17.4987 84.5473C17.4994 84.5473 17.5002 84.5471 17.5011 84.5471H24.6743C25.4665 90.5526 30.6152 95.204 36.8339 95.204C43.0521 95.204 48.2009 90.5526 48.993 84.5471H74.8386C75.631 90.5526 80.7795 95.204 86.998 95.204C93.2162 95.204 98.3654 90.5526 99.1577 84.5471H106.333C106.334 84.5471 106.335 84.5473 106.336 84.5473C106.39 84.5473 106.443 84.5441 106.495 84.5389C106.505 84.5381 106.514 84.5361 106.523 84.5351C106.565 84.5301 106.607 84.5243 106.647 84.5162C106.665 84.5127 106.682 84.508 106.699 84.5039C106.731 84.4966 106.763 84.4889 106.794 84.4796C106.815 84.4734 106.835 84.4661 106.856 84.459C106.882 84.45 106.909 84.4405 106.935 84.43C106.957 84.4212 106.978 84.4115 107 84.4019C107.024 84.3909 107.047 84.3797 107.07 84.3679C107.092 84.3567 107.113 84.3451 107.134 84.3331C107.156 84.3202 107.178 84.3069 107.2 84.2932C107.22 84.2803 107.24 84.2672 107.26 84.2534C107.282 84.2382 107.302 84.222 107.324 84.2057C107.341 84.1917 107.359 84.178 107.376 84.1634C107.399 84.1447 107.419 84.1251 107.44 84.1052C107.455 84.0912 107.47 84.0774 107.484 84.0628C107.507 84.0401 107.528 84.016 107.549 83.9917C107.561 83.9786 107.573 83.9659 107.584 83.9526C107.607 83.9234 107.629 83.8933 107.65 83.863C107.657 83.8525 107.666 83.8426 107.673 83.8319C107.699 83.7926 107.724 83.7522 107.746 83.7105C107.748 83.7079 107.75 83.7055 107.751 83.7028C107.775 83.6581 107.797 83.6123 107.817 83.565C107.823 83.5515 107.827 83.5375 107.833 83.524C107.846 83.4907 107.859 83.4574 107.87 83.4228C107.877 83.4005 107.882 83.3775 107.888 83.3549C107.895 83.3281 107.903 83.3014 107.909 83.2741C107.914 83.2499 107.918 83.2249 107.922 83.2002C107.925 83.1785 107.93 83.1573 107.933 83.1351C108.001 82.5877 109.263 72.4645 109.826 65.9186C109.827 65.9123 109.827 65.9059 109.828 65.8997C109.99 64.0127 110.094 62.4237 110.094 61.4509C110.094 49.9006 100.697 40.5035 89.1468 40.5035ZM81.9407 43.7266H88.5328L87.6908 53.3938H81.0988L81.9407 43.7266ZM36.8343 91.9811C31.8463 91.9811 27.7883 87.9232 27.7883 82.9353C27.7883 77.9475 31.8465 73.8895 36.8343 73.8895C41.8222 73.8895 45.8801 77.9475 45.8801 82.9353C45.8801 87.9232 41.8222 91.9811 36.8343 91.9811ZM86.998 91.9811C82.0101 91.9811 77.9524 87.9232 77.9524 82.9353C77.9524 77.9475 82.0103 73.8895 86.998 73.8895C91.986 73.8895 96.044 77.9475 96.044 82.9353C96.044 87.9232 91.986 91.9811 86.998 91.9811ZM104.909 81.3234H99.1582C98.3662 75.3174 93.2173 70.6658 86.9984 70.6658C80.7799 70.6658 75.631 75.3176 74.839 81.3234H48.9937C48.2018 75.3174 43.053 70.6658 36.8343 70.6658C30.6156 70.6658 25.4665 75.3176 24.6745 81.3234H19.2725L20.6258 67.3576H78.405V67.3585C78.4059 67.3585 78.4065 67.3585 78.4074 67.3585C78.4613 67.3585 78.5148 67.3554 78.5677 67.3501C78.5776 67.3492 78.5872 67.3471 78.5971 67.3458C78.6392 67.3408 78.6811 67.3348 78.7224 67.3267C78.7402 67.323 78.7576 67.3181 78.7752 67.3138C78.8074 67.306 78.8397 67.2985 78.871 67.2891C78.8925 67.2826 78.9129 67.2749 78.9338 67.2676C78.9608 67.2581 78.9879 67.2489 79.0141 67.2381C79.0367 67.2289 79.0584 67.2186 79.0803 67.2083C79.1041 67.1973 79.128 67.1864 79.151 67.1743C79.1729 67.1627 79.1944 67.1503 79.2161 67.1378C79.2382 67.1249 79.2601 67.1118 79.2816 67.0981C79.3024 67.0845 79.3222 67.0703 79.3422 67.0562C79.3635 67.0411 79.3841 67.0257 79.4047 67.0095C79.4232 66.9947 79.4414 66.9795 79.4595 66.9638C79.4799 66.9462 79.4999 66.9281 79.5192 66.9094C79.5355 66.8937 79.5519 66.8776 79.5678 66.8611C79.5871 66.8409 79.6058 66.8201 79.6243 66.7988C79.6387 66.782 79.6529 66.7653 79.6666 66.7481C79.6844 66.7255 79.7014 66.7023 79.7182 66.6789C79.7308 66.6613 79.7431 66.6437 79.7551 66.6256C79.7708 66.6013 79.7858 66.5764 79.8002 66.5511C79.8112 66.5322 79.8224 66.5133 79.8322 66.4939C79.8458 66.4686 79.8574 66.4428 79.8696 66.4168C79.8791 66.396 79.8888 66.3755 79.8973 66.3541C79.9079 66.3287 79.9167 66.3027 79.9259 66.2767C79.9339 66.2537 79.9422 66.2307 79.9493 66.2071C79.9564 66.1822 79.9622 66.1566 79.9687 66.1313C79.9749 66.1057 79.9818 66.0803 79.9867 66.0543C79.9917 66.029 79.9947 66.0032 79.9985 65.9774C80.0024 65.9508 80.0069 65.9246 80.0095 65.8975C80.0099 65.8936 80.0108 65.89 80.011 65.8861L80.8186 56.6156H89.1464C94.0833 56.6156 96.31 59.1735 98.667 61.8819C100.612 64.1165 102.783 66.6097 106.474 67.2179C106.006 72.1744 105.248 78.5372 104.909 81.3234ZM106.75 63.9888C104.355 63.5007 102.882 61.8174 101.098 59.7669C98.8655 57.2028 96.1407 54.0735 90.9172 53.4905L91.7508 43.9196C100.294 45.1831 106.872 52.5625 106.872 61.4513C106.872 62.0552 106.826 62.9327 106.75 63.9888Z" fill="#074665"/>
<path d="M36.8343 77.0271C33.5766 77.0271 30.926 79.6774 30.926 82.9353C30.926 86.1932 33.5766 88.8436 36.8343 88.8436C40.092 88.8436 42.7425 86.1932 42.7425 82.9353C42.7425 79.6776 40.092 77.0271 36.8343 77.0271ZM36.8343 85.6209C35.3533 85.6209 34.1487 84.4162 34.1487 82.9353C34.1487 81.4544 35.3533 80.2498 36.8343 80.2498C38.3152 80.2498 39.5198 81.4544 39.5198 82.9353C39.5198 84.4162 38.315 85.6209 36.8343 85.6209Z" fill="#074665"/>
<path d="M86.9979 77.0271C83.7402 77.0271 81.0897 79.6774 81.0897 82.9353C81.0897 86.1932 83.7402 88.8436 86.9979 88.8436C90.2556 88.8436 92.9061 86.1932 92.9061 82.9353C92.9061 79.6776 90.2556 77.0271 86.9979 77.0271ZM86.9979 85.6209C85.517 85.6209 84.3123 84.4162 84.3123 82.9353C84.3123 81.4544 85.517 80.2498 86.9979 80.2498C88.4788 80.2498 89.6834 81.4544 89.6834 82.9353C89.6834 84.4162 88.4788 85.6209 86.9979 85.6209Z" fill="#074665"/>
<path d="M15.3482 40.5042H7.47066C6.58056 40.5042 5.85933 41.2256 5.85933 42.1155C5.85933 43.0054 6.58056 43.7268 7.47066 43.7268H15.3482C16.2383 43.7268 16.9595 43.0054 16.9595 42.1155C16.9595 41.2256 16.2383 40.5042 15.3482 40.5042Z" fill="#074665"/>
</g>
<defs>
<clipPath id="clip0">
<rect width="110" height="110" fill="white" transform="translate(0.0941772)"/>
</clipPath>
</defs>
</svg>
