<svg width="32" height="32" viewBox="0 0 32 32" fill="none" xmlns="http://www.w3.org/2000/svg">
<path d="M26.8404 14.3793C26.8223 14.3488 26.8035 14.3187 26.7824 14.2897L16.9189 0.47325C16.7072 0.176188 16.3647 0 15.9999 0C15.6347 0 15.2925 0.176188 15.0809 0.47325L5.21736 14.2897C5.19705 14.3187 5.17749 14.3484 5.15974 14.3793C3.13355 17.8741 3.16593 22.1162 5.24668 25.7276C7.47543 29.5966 11.5959 32 15.9999 32C20.4038 32 24.5243 29.5962 26.7534 25.7272C28.8337 22.1161 28.8665 17.8737 26.8404 14.3793ZM24.7961 24.5998C22.9695 27.7711 19.5989 29.7412 15.9999 29.7412C12.4012 29.7412 9.03061 27.7715 7.20361 24.6001C5.51511 21.6689 5.47336 18.3763 7.0873 15.5573L15.9999 3.07312L24.9124 15.5576C26.526 18.3767 26.4846 21.6693 24.7961 24.5998Z" fill="#074665"/>
<path d="M21.9104 18.5979C21.2866 18.5979 20.781 19.1035 20.781 19.7273C20.781 22.4048 18.6024 24.5835 15.9245 24.5835C15.3007 24.5835 14.795 25.0891 14.795 25.7129C14.795 26.3367 15.3007 26.8423 15.9245 26.8423C19.8477 26.8423 23.0398 23.6502 23.0398 19.7274C23.0398 19.1035 22.5342 18.5979 21.9104 18.5979Z" fill="#074665"/>
</svg>
