<svg width="101" height="100" viewBox="0 0 101 100" fill="none" xmlns="http://www.w3.org/2000/svg">
<g clip-path="url(#clip0)">
<path d="M98.9136 20.1776H90.7715C91.008 19.8457 91.2224 19.497 91.4101 19.1316C92.4874 17.0274 92.6331 14.5494 91.8099 12.3322L89.3425 5.70074C88.5201 3.48592 86.792 1.70521 84.6031 0.815621C82.412 -0.0747328 79.9301 -0.00377923 77.7931 1.01093L58.2664 10.2845C57.3012 9.5948 56.121 9.18739 54.8468 9.18739H46.0669C44.7928 9.18739 43.6117 9.59557 42.6466 10.2853L23.1206 1.01017C20.9836 -0.00377913 18.5018 -0.0747328 16.3106 0.815621C14.1217 1.70521 12.3937 3.48592 11.5712 5.69998L9.10386 12.333C8.28064 14.5494 8.42636 17.0274 9.5044 19.1316C9.69132 19.497 9.90647 19.8465 10.143 20.1776H2.0001C1.14789 20.1776 0.456665 20.868 0.456665 21.721V32.8317C0.456665 33.684 1.14789 34.3752 2.0001 34.3752C2.8523 34.3752 3.54353 33.684 3.54353 32.8317V23.2637H14.2636C14.4353 23.324 14.6093 23.3797 14.7855 23.4285L27.7425 26.9952C24.8632 31.4073 22.3234 36.0483 20.149 40.8571H3.54353V39.0047C3.54353 38.1525 2.8523 37.462 2.0001 37.462C1.14789 37.462 0.456665 38.1525 0.456665 39.0047V42.4006C0.456665 43.2528 1.14789 43.944 2.0001 43.944H7.50397V98.5837C7.50397 99.4366 8.19519 100.127 9.0474 100.127H91.8663C92.7186 100.127 93.4098 99.4366 93.4098 98.5837V89.6222C93.4098 88.7699 92.7186 88.0787 91.8663 88.0787C91.0134 88.0787 90.3229 88.7699 90.3229 89.6222V97.041H59.7159V44.8931C64.0876 53.1733 67.0471 62.1768 68.4089 71.4794C68.4989 72.0951 68.9506 72.5963 69.5541 72.7504C69.6807 72.7832 69.8089 72.7985 69.9363 72.7985C70.4132 72.7985 70.8725 72.5772 71.1685 72.1843C73.3871 69.2409 75.4501 66.0899 77.3125 62.8001C80.4314 64.9242 83.4595 67.2923 86.3327 69.8558C86.8172 70.2877 87.5206 70.3708 88.0921 70.0626C88.6635 69.7551 88.9817 69.1226 88.8871 68.4802C87.6549 60.0749 85.3577 51.8092 82.1014 43.944H90.3221V83.4484C90.3221 84.3014 91.0134 84.9919 91.8656 84.9919C92.7186 84.9919 93.409 84.3014 93.409 83.4484V43.944H98.9136C99.7659 43.944 100.456 43.2528 100.456 42.4006V21.721C100.457 20.868 99.7666 20.1776 98.9136 20.1776V20.1776ZM79.1168 3.79873C80.4939 3.14565 82.029 3.1014 83.4412 3.67513C84.8511 4.2481 85.9192 5.34903 86.4495 6.77649L88.916 13.4072C89.4471 14.8355 89.3563 16.369 88.662 17.7247C87.9685 19.0797 86.7775 20.0486 85.3096 20.4522L60.7421 27.2157V19.7984C66.2643 16.417 80.0308 9.44298 83.4572 14.2793C83.9493 14.9743 84.9121 15.1399 85.6079 14.647C86.3037 14.1541 86.4685 13.1906 85.9757 12.4955C83.3313 8.76243 77.7588 8.58085 69.4114 11.9569C65.9728 13.347 62.7982 15.0437 60.7421 16.221V15.0819C60.7421 14.2556 60.5704 13.4683 60.2622 12.7534L79.1168 3.79873ZM46.0669 12.2735H54.8468C56.3956 12.2735 57.6552 13.5339 57.6552 15.0819V27.8391C57.6552 29.3878 56.3956 30.6474 54.8468 30.6474H46.0669C44.5181 30.6474 43.2585 29.3878 43.2585 27.8391V15.0819C43.2585 13.5331 44.5181 12.2735 46.0669 12.2735V12.2735ZM43.4729 40.8564C44.9492 38.4035 46.5559 36.0262 48.2848 33.7343H52.6274C54.357 36.0262 55.9638 38.4035 57.4393 40.8564H43.4729ZM12.2518 17.7247C11.5575 16.369 11.4667 14.8355 11.9969 13.408L14.4651 6.77573C14.9945 5.34903 16.0627 4.2481 17.4726 3.67513C18.884 3.1014 20.4198 3.14565 21.7962 3.79873L40.6515 12.7549C40.3433 13.469 40.1716 14.2556 40.1716 15.0826V16.3095C38.1224 15.13 34.8761 13.3828 31.3497 11.9569C23.0031 8.58085 17.4298 8.76243 14.7855 12.4955C14.2926 13.1906 14.4574 14.1541 15.1532 14.647C15.849 15.1399 16.8119 14.9751 17.304 14.2793C20.7624 9.3972 34.7555 16.549 40.1716 19.8922V27.2157L15.6049 20.453C14.1362 20.0486 12.9453 19.0797 12.2518 17.7247ZM40.8644 30.6078C41.6327 32.0452 42.9785 33.1293 44.5906 33.5466C37.3724 43.6175 32.4034 55.189 30.0726 67.3519C28.433 64.9562 26.9003 62.4454 25.4972 59.8521C25.292 59.4722 24.938 59.196 24.5191 59.0899C24.101 58.9839 23.6577 59.0579 23.2969 59.2937C20.7265 60.9698 18.2096 62.8085 15.7788 64.783C18.2821 51.6436 23.454 38.9742 30.8706 27.8566L40.8644 30.6078ZM10.5908 43.944H18.8123C15.5561 51.8092 13.2588 60.0741 12.0259 68.4802C11.9321 69.1226 12.2495 69.7551 12.8209 70.0626C13.3931 70.3701 14.0958 70.2877 14.5803 69.8558C17.4535 67.2923 20.4816 64.9242 23.6013 62.8001C25.4636 66.0899 27.5259 69.2401 29.7453 72.1843C30.0413 72.5772 30.5006 72.7993 30.9774 72.7993C31.1048 72.7993 31.233 72.7832 31.3597 72.7504C31.9631 72.5963 32.414 72.0951 32.5041 71.4794C33.8667 62.1768 36.8261 53.1726 41.197 44.8923V97.041H10.5908V43.944ZM44.2839 97.041V43.944H56.6298V97.041H44.2839ZM77.6169 59.2937C77.256 59.0579 76.812 58.9847 76.3946 59.0907C75.9765 59.1968 75.6218 59.4729 75.4165 59.8521C74.0135 62.4454 72.4807 64.957 70.8412 67.3519C68.5104 55.1883 63.5413 43.6175 56.3224 33.5474C57.9345 33.1308 59.2811 32.0459 60.0493 30.6078L70.0454 27.8558C77.4605 38.9757 82.6324 51.6452 85.1357 64.783C82.7042 62.8085 80.1872 60.9698 77.6169 59.2937V59.2937ZM97.3702 40.8571H80.7655C78.5911 36.0483 76.0513 31.4073 73.1727 26.9952L86.1283 23.4285C86.3045 23.3797 86.4784 23.324 86.6501 23.2637H97.3702V40.8571Z" fill="#074665"/>
</g>
<defs>
<clipPath id="clip0">
<rect width="100" height="100" fill="white" transform="translate(0.456665)"/>
</clipPath>
</defs>
</svg>
