<svg width="40" height="40" viewBox="0 0 40 40" fill="none" xmlns="http://www.w3.org/2000/svg">
<path d="M16.0803 5.73424C12.5856 2.24137 5.747 1.83635 0.90821 1.83635C0.406639 1.83635 0 2.24299 0 2.74456C0 7.58514 0.405021 14.4237 3.89789 17.9185C5.53781 19.379 7.68143 20.1444 9.87554 20.0527C12.1379 20.1419 14.3515 19.3805 16.0803 17.9185C18.6831 15.3137 19.1608 8.81484 16.0803 5.73424Z" fill="#7F8925"/>
<path d="M39.0918 5.42909C34.2512 5.42909 27.4126 5.83411 23.9179 9.32698C20.83 12.4148 21.315 18.9047 23.9179 21.5094C25.6472 22.9716 27.8615 23.733 30.1244 23.6436C32.3184 23.7351 34.462 22.9697 36.102 21.5094C39.5967 18.0147 39.9999 11.1761 39.9999 6.33543C39.999 5.83462 39.5927 5.42909 39.0918 5.42909Z" fill="#7F8925"/>
<path d="M19.0719 38.1637C18.5703 38.1637 18.1637 37.757 18.1637 37.2555C18.1637 17.9929 11.0998 13.1596 8.44068 11.3414C8.11995 11.1366 7.81625 10.9064 7.53247 10.653C7.18399 10.2922 7.19403 9.71727 7.55478 9.36878C7.90676 9.02881 8.46469 9.02881 8.81667 9.36878C9.02178 9.54221 9.23906 9.70066 9.4669 9.84285C11.8281 11.4576 17.3899 15.2629 19.3134 27.7449C20.7999 21.2192 25.2063 15.7403 31.2615 12.8889C31.7252 12.6708 32.2786 12.8455 32.5329 13.2903C32.7626 13.6952 32.6208 14.2095 32.2159 14.4393C32.2008 14.4479 32.1853 14.4561 32.1696 14.4638L32.0225 14.5328C22.0652 19.2136 19.9745 29.4724 19.9745 37.2555C19.9746 37.7549 19.5713 38.1606 19.0719 38.1637Z" fill="#555B55"/>
</svg>
