<svg width="50" height="50" viewBox="0 0 50 50" fill="none" xmlns="http://www.w3.org/2000/svg">
<path d="M20.1003 7.1678C15.732 2.80172 7.18376 2.29544 1.13526 2.29544C0.508298 2.29544 0 2.80374 0 3.4307C0 9.48143 0.506276 18.0297 4.87236 22.3981C6.92226 24.2238 9.60179 25.1804 12.3444 25.0659C15.1723 25.1774 17.9393 24.2256 20.1003 22.3981C23.3539 19.1422 23.951 11.0186 20.1003 7.1678Z" fill="#7F8925"/>
<path d="M48.8647 6.78636C42.814 6.78636 34.2658 7.29264 29.8973 11.6587C26.0375 15.5185 26.6437 23.6309 29.8973 26.8867C32.059 28.7145 34.8268 29.6663 37.6555 29.5545C40.398 29.6688 43.0775 28.7122 45.1275 26.8867C49.4959 22.5184 49.9999 13.9701 49.9999 7.91928C49.9987 7.29328 49.4909 6.78636 48.8647 6.78636Z" fill="#7F8925"/>
<path d="M23.8398 47.7046C23.2128 47.7046 22.7045 47.1963 22.7045 46.5693C22.7045 22.4911 13.8748 16.4494 10.5508 14.1767C10.1499 13.9207 9.77027 13.6329 9.41555 13.3162C8.97994 12.8653 8.9925 12.1466 9.44343 11.711C9.8834 11.286 10.5808 11.286 11.0208 11.711C11.2772 11.9278 11.5488 12.1258 11.8336 12.3036C14.7851 14.322 21.7373 19.0786 24.1417 34.6811C25.9998 26.524 31.5079 19.6754 39.0768 16.1111C39.6564 15.8384 40.3482 16.0568 40.6661 16.6129C40.9532 17.119 40.7759 17.7619 40.2699 18.0492C40.2509 18.0599 40.2316 18.0701 40.212 18.0797L40.0281 18.166C27.5815 24.017 24.9681 36.8406 24.9681 46.5694C24.9682 47.1936 24.4641 47.7007 23.8398 47.7046Z" fill="#555B55"/>
</svg>
