<svg width="37" height="37" viewBox="0 0 37 37" fill="none" xmlns="http://www.w3.org/2000/svg">
<path d="M35.4583 20.0097H1.54167C0.690664 20.0097 0 19.319 0 18.468C0 17.617 0.690664 16.9263 1.54167 16.9263H35.4583C36.3093 16.9263 37 17.617 37 18.468C37 19.319 36.3093 20.0097 35.4583 20.0097Z" fill="#074665"/>
<path d="M35.4583 8.19011H1.54167C0.690664 8.19011 0 7.49945 0 6.64845C0 5.79744 0.690664 5.10678 1.54167 5.10678H35.4583C36.3093 5.10678 37 5.79744 37 6.64845C37 7.49945 36.3093 8.19011 35.4583 8.19011Z" fill="#074665"/>
<path d="M35.4583 31.8289H1.54167C0.690664 31.8289 0 31.1382 0 30.2872C0 29.4362 0.690664 28.7455 1.54167 28.7455H35.4583C36.3093 28.7455 37 29.4362 37 30.2872C37 31.1382 36.3093 31.8289 35.4583 31.8289Z" fill="#074665"/>
</svg>
