<svg width="32" height="32" viewBox="0 0 32 32" fill="none" xmlns="http://www.w3.org/2000/svg">
<g clip-path="url(#clip0)">
<path d="M21.3989 16.9595C19.959 14.7131 17.5066 13.3718 14.8386 13.3718C12.1709 13.3718 9.71826 14.7131 8.27856 16.9595L4.80884 22.3723C4.23315 23.2705 3.96753 24.3079 4.04052 25.3721C4.11352 26.4365 4.51855 27.4277 5.21167 28.239C5.90527 29.05 6.82177 29.6042 7.86206 29.842C8.90234 30.0796 9.96875 29.9783 10.9458 29.5488L11.0095 29.5205C13.4683 28.4607 16.2786 28.4702 18.7312 29.5488C19.3638 29.8269 20.0339 29.9675 20.7102 29.9675C21.0779 29.9675 21.4478 29.9258 21.8142 29.8423C22.8545 29.6047 23.771 29.0505 24.4648 28.2395C25.1582 27.4285 25.5635 26.437 25.6367 25.3726C25.71 24.3079 25.4443 23.2705 24.8687 22.3721L21.3989 16.9595ZM23.0393 27.0203C22.1567 28.052 20.729 28.3782 19.4863 27.8318C18.0093 27.1821 16.4238 26.8574 14.8379 26.8574C13.2534 26.8574 11.6682 27.1819 10.1921 27.8308L10.1501 27.8494C8.91699 28.3708 7.51025 28.0405 6.63745 27.0203C5.75586 25.9883 5.65552 24.5273 6.38794 23.3845L9.85791 17.9717C10.9512 16.2661 12.813 15.2478 14.8386 15.2478C16.8643 15.2478 18.7263 16.2661 19.8198 17.9717L23.2893 23.3843C24.022 24.5276 23.9214 25.9888 23.0393 27.0203Z" fill="#074665"/>
<path d="M5.74301 16.9524C6.77523 16.5559 7.55941 15.7241 7.95126 14.6101C8.32382 13.55 8.2933 12.3533 7.86483 11.24C7.43612 10.1274 6.65634 9.21922 5.66928 8.68236C4.63192 8.11863 3.49252 8.02684 2.462 8.42405C0.388759 9.22118 -0.562657 11.7832 0.341396 14.1365C1.06356 16.0095 2.74789 17.1919 4.45077 17.1919C4.88559 17.1919 5.32162 17.1147 5.74301 16.9524ZM2.09188 13.4626C1.55917 12.0759 2.02719 10.6008 3.13583 10.1745C3.33602 10.0974 3.54769 10.0591 3.76376 10.0591C4.09726 10.0591 4.44174 10.1501 4.77328 10.3306C5.36947 10.6545 5.84579 11.217 6.11435 11.9141C6.38266 12.6116 6.40658 13.3479 6.18148 13.9878C5.97518 14.5742 5.58041 15.0054 5.07016 15.2014L5.06918 15.2019C3.962 15.6287 2.62631 14.8481 2.09188 13.4626Z" fill="#074665"/>
<path d="M12.4758 12.7117C15.0676 12.7117 17.1763 10.3093 17.1763 7.35645C17.1763 4.40283 15.0676 2 12.4758 2C9.88428 2 7.77588 4.40283 7.77588 7.35645C7.77588 10.3093 9.88428 12.7117 12.4758 12.7117ZM12.4758 3.87573C14.0332 3.87573 15.3005 5.43726 15.3005 7.35645C15.3005 9.2749 14.0332 10.8359 12.4758 10.8359C10.9185 10.8359 9.65161 9.2749 9.65161 7.35645C9.65161 5.43726 10.9185 3.87573 12.4758 3.87573Z" fill="#074665"/>
<path d="M20.5936 14.0273H20.5938C20.9925 14.1597 21.3992 14.2229 21.8043 14.2229C23.6944 14.2229 25.5364 12.8472 26.2393 10.7329C26.6441 9.51587 26.6175 8.229 26.1644 7.10962C25.6902 5.93799 24.8116 5.0874 23.69 4.71435C22.5684 4.3418 21.3548 4.49707 20.2735 5.15185C19.2405 5.77759 18.449 6.79223 18.045 8.00928C17.1917 10.5767 18.335 13.2764 20.5936 14.0273V14.0273ZM19.825 8.60083C20.0889 7.80615 20.5933 7.15137 21.2454 6.75635C21.8487 6.39087 22.5069 6.29785 23.0984 6.49438C23.6897 6.69116 24.1609 7.15942 24.4256 7.81323C24.7115 8.51977 24.7237 9.34643 24.4593 10.1411C23.9322 11.727 22.4634 12.6719 21.1854 12.2473C19.9083 11.8225 19.2979 10.1868 19.825 8.60083Z" fill="#074665"/>
<path d="M30.4921 13.4022L30.4914 13.4014C28.704 12.0811 26.0309 12.6534 24.5322 14.6778C23.0349 16.7032 23.269 19.4261 25.0537 20.7474C25.7045 21.2295 26.4736 21.46 27.2607 21.46C28.6325 21.46 30.0598 20.7598 31.0136 19.4722C32.5109 17.4468 32.277 14.7239 30.4921 13.4022V13.4022ZM29.506 18.3562C28.621 19.5508 27.1247 19.9471 26.1699 19.2398C25.2158 18.5335 25.1577 16.9871 26.0402 15.7933C26.6269 15.0008 27.4838 14.5599 28.2736 14.5599C28.673 14.5599 29.0554 14.6727 29.3766 14.9102C30.33 15.6172 30.3879 17.1631 29.506 18.3562V18.3562Z" fill="#074665"/>
</g>
<defs>
<clipPath id="clip0">
<rect width="32" height="32" fill="white"/>
</clipPath>
</defs>
</svg>
