<svg width="32" height="32" viewBox="0 0 32 32" fill="none" xmlns="http://www.w3.org/2000/svg">
<path d="M21.6719 10.3281C20.2328 8.88898 18.201 7.95776 16 7.95776C13.7989 7.95776 11.7672 8.84665 10.328 10.3281C8.88886 11.7673 7.95764 13.799 7.95764 16.0001C7.95764 18.2012 8.88886 20.2329 10.328 21.6721C11.7672 23.1112 13.7989 24.0424 16 24.0424C18.201 24.0424 20.2328 23.1535 21.6719 21.6721C23.1111 20.2329 24.0423 18.2012 24.0423 16.0001C24.0423 13.799 23.1534 11.7673 21.6719 10.3281ZM20.1481 20.1482C19.0899 21.2064 17.6084 21.8414 16 21.8414C14.3915 21.8414 12.91 21.2064 11.8518 20.1482C10.7936 19.09 10.1587 17.6086 10.1587 16.0001C10.1587 14.3916 10.7936 12.9101 11.8518 11.8519C12.91 10.7937 14.3915 10.1588 16 10.1588C17.6084 10.1588 19.0899 10.7937 20.1481 11.8519C21.2063 12.9101 21.8412 14.3916 21.8412 16.0001C21.8412 17.6086 21.2063 19.09 20.1481 20.1482Z" fill="#074665"/>
<path d="M30.8995 14.8994H27.6402C27.0476 14.8994 26.5397 15.4073 26.5397 15.9999C26.5397 16.5925 27.0476 17.1005 27.6402 17.1005H30.8995C31.4921 17.1005 32 16.5925 32 15.9999C32 15.4073 31.4921 14.8994 30.8995 14.8994Z" fill="#074665"/>
<path d="M16 26.5396C15.4074 26.5396 14.8995 27.0475 14.8995 27.6401V30.8994C14.8995 31.4919 15.4074 31.9999 16 31.9999C16.5926 31.9999 17.1005 31.4919 17.1005 30.8994V27.6401C17.1005 27.0475 16.5926 26.5396 16 26.5396Z" fill="#074665"/>
<path d="M27.3016 25.7776L24.9735 23.4495C24.5926 23.0263 23.873 23.0263 23.4497 23.4495C23.0264 23.8728 23.0264 24.5501 23.4497 24.9733L25.7778 27.3014C26.201 27.7247 26.8783 27.7247 27.3016 27.3014C27.7249 26.8781 27.7249 26.2009 27.3016 25.7776Z" fill="#074665"/>
<path d="M16 0C15.4074 0 14.8995 0.507936 14.8995 1.10053V4.35979C14.8995 4.95238 15.4074 5.46031 16 5.46031C16.5926 5.46031 17.1005 4.95238 17.1005 4.35979V1.10053C17.1005 0.507936 16.5926 0 16 0Z" fill="#074665"/>
<path d="M27.3439 4.69832C26.9207 4.27504 26.2434 4.27504 25.8201 4.69832L23.4921 7.02636C23.0688 7.44964 23.0688 8.12689 23.4921 8.55016C23.873 8.97344 24.5926 8.97344 25.0159 8.55016L27.3439 6.22213C27.7672 5.79885 27.7672 5.1216 27.3439 4.69832Z" fill="#074665"/>
<path d="M4.35979 14.8994H1.10053C0.507936 14.8994 0 15.4073 0 15.9999C0 16.5925 0.465608 17.1005 1.10053 17.1005H4.35979C4.95238 17.1005 5.46031 16.5925 5.46031 15.9999C5.46031 15.4073 4.95238 14.8994 4.35979 14.8994Z" fill="#074665"/>
<path d="M8.50794 23.4495C8.12698 23.0263 7.40741 23.0263 6.98413 23.4495L4.65608 25.7776C4.2328 26.2009 4.2328 26.8781 4.65608 27.3014C5.07936 27.7247 5.75661 27.7247 6.17989 27.3014L8.50794 24.9733C8.93122 24.5501 8.93122 23.8728 8.50794 23.4495Z" fill="#074665"/>
<path d="M8.50794 7.02636L6.17989 4.69832C5.75661 4.27504 5.07936 4.27504 4.65608 4.69832C4.2328 5.1216 4.2328 5.79885 4.65608 6.22213L6.98413 8.55016C7.40741 8.97344 8.08466 8.97344 8.50794 8.55016C8.93122 8.12689 8.93122 7.44964 8.50794 7.02636Z" fill="#074665"/>
</svg>
